<?xml version="1.0" encoding="UTF-8" standalone="no"?>
<!-- Created with Inkscape (http://www.inkscape.org/) -->

<svg
   width="210mm"
   height="297mm"
   viewBox="0 0 810 297"
   version="1.1"
   id="svg6621"
   xmlns="http://www.w3.org/2000/svg"
   xmlns:svg="http://www.w3.org/2000/svg">
  <defs
     id="defs6618">
    <clipPath
       clipPathUnits="userSpaceOnUse"
       id="clipPath1178">
      <path
         d="M 27670.3,18660.2 H 14295.4 c -369.4,0 -668.8,299.3 -668.8,668.7 v 3027.4 h 1357.5 c 4.6,-21.9 10.7,-42.9 18.2,-63.2 19.9,-53.5 47.6,-99.3 83.1,-137.4 35.6,-38.1 78,-67.6 127.2,-88.7 49.3,-21.1 103.2,-31.6 162,-31.6 58.7,0 112.6,10.6 161.9,31.9 49.2,21.3 91.5,51.1 126.9,89.3 35.3,38.3 62.9,84.1 82.8,137.5 7.4,19.9 13.4,40.7 18.1,62.2 h 209.8 V 21817 h 107.4 v 133.7 146.7 c 22.7,-21.1 47.8,-36.7 75.3,-46.8 27.5,-10.1 58,-15.2 91.6,-15.2 36.8,0 70.9,7.6 102.3,22.9 31.4,15.3 58.7,37 81.6,65.2 23,28.1 40.9,62.1 54,102 12.7,39.1 19.3,82.7 19.5,130.8 h 199.5 v -128 c 0,-31 1.4,-58.2 4.3,-81.6 2.9,-23.4 9.3,-42.8 19.2,-58.3 9.9,-15.5 24.3,-27.2 43.1,-35 18.9,-7.9 44.4,-11.8 76.7,-11.8 28.9,0 54.8,2.6 77.5,8 v 81.3 c -8.3,-1.2 -16.9,-2.3 -26.1,-3.1 -9.1,-0.8 -18.3,-1.3 -27.9,-1.3 -9,0 -17.3,1.1 -24.4,3.2 -7.3,2.1 -13.5,6.5 -18.7,13.3 -5.2,6.8 -9.1,16.5 -11.8,29.2 -0.3,1.5 -0.6,3 -0.9,4.6 9.9,-1 20.6,-1.5 32.3,-1.5 28.9,0 54.8,2.7 77.5,8 v 81.4 c -8.3,-1.3 -16.9,-2.3 -26.1,-3.1 -9.1,-0.9 -18.3,-1.3 -27.9,-1.3 -9,0 -17.3,1 -24.4,3.1 -7.3,2.1 -13.5,6.5 -18.7,13.3 -5.2,6.9 -9.1,16.6 -11.8,29.2 -2.6,12.5 -4,29.2 -4,50.4 h 266.9 v -306 h 107.4 v 133.7 172.3 h 183.9 c 0,-0.7 0,-1.4 0,-2 0,-50.9 6.9,-96.1 20.8,-135.6 13.8,-39.5 33.3,-72.9 58.3,-100.2 25,-27.3 55,-48 90,-62 34.9,-14.1 73.7,-21.1 116.3,-21.1 43,0 82.1,7.1 117.3,21.4 35.1,14.2 65.1,35 89.9,62.3 24.8,27.3 44.1,60.7 57.7,100.2 13.7,39.5 20.5,84.5 20.5,135 0,0.6 0,1.3 0,2 h 184.5 v -306 h 107.3 v 133.7 172.3 h 278.6 v -306 h 109.2 v 133.7 172.3 h 672.4 v -64.1 h 337 v -241.9 h 109.2 v 133.7 108.2 h 145.7 v 64.1 h 3239.2 V 18727 h 66.9 66.8 v 3629.3 h 2362.8 v -306 h 266.2 c 242.3,0 381.8,101.9 418.3,306 H 28339 v -3027.4 c 0,-369.4 -299.5,-668.7 -668.7,-668.7 M 17656.8,22121 c -25.7,0 -49.1,4.8 -70.4,14.5 -21.4,9.8 -39.6,24.5 -54.9,44.1 -5.1,6.6 -9.9,13.6 -14.2,21.3 7.5,-3.9 15.2,-7.5 23.2,-10.7 34.9,-14 73.7,-21.1 116.3,-21.1 43,0 82.1,7.1 117.3,21.4 7.4,3 14.5,6.3 21.4,9.9 -4.2,-7.5 -8.8,-14.4 -13.7,-20.8 -15.1,-19.6 -33.3,-34.3 -54.6,-44.1 -21.3,-9.7 -44.7,-14.5 -70.4,-14.5 m -1414.7,0 c -59.9,0 -113.5,24.6 -160.6,73.8 v 36.4 c 22.7,-21.1 47.8,-36.7 75.3,-46.9 27.5,-10.1 58,-15.2 91.6,-15.2 36.8,0 70.9,7.7 102.3,23 3.9,1.9 7.6,3.8 11.3,5.9 -3,-6 -6.3,-11.6 -9.7,-16.9 -13.1,-19.8 -29,-34.8 -47.8,-44.9 -18.8,-10.2 -39.6,-15.2 -62.4,-15.2 m -868.2,9.9 c -41.8,0 -80.1,7.6 -115,22.9 -35.1,15.4 -65.2,37.6 -90.6,66.8 -1.5,1.7 -3,3.4 -4.4,5.2 15.4,-9.4 31.6,-17.7 48.7,-25.1 49.3,-21 103.2,-31.6 162,-31.6 58.7,0 112.6,10.7 161.9,31.9 16.9,7.4 33.1,15.7 48.4,25.1 -1.5,-1.9 -3.1,-3.7 -4.7,-5.5 -25.4,-29.2 -55.7,-51.4 -90.9,-66.8 -35.1,-15.3 -73.6,-22.9 -115.4,-22.9 m 10512.8,19.3 h -153.8 v 33.8 h 155.1 c 100.7,0 183.6,17.6 248.8,52.9 -0.2,-0.3 -0.4,-0.6 -0.7,-0.8 -23.9,-27.9 -56.2,-49.3 -96.8,-63.9 -40.5,-14.7 -91.4,-22 -152.6,-22 m -8229.9,104.5 c -25.7,0 -49.1,4.9 -70.4,14.6 -21.4,9.7 -39.6,24.4 -54.9,44.1 -9.7,12.4 -18,26.6 -24.9,42.9 h 299.9 c -6.9,-16.3 -15.2,-30.5 -24.7,-42.9 -15.1,-19.7 -33.3,-34.4 -54.6,-44.1 -21.3,-9.7 -44.7,-14.6 -70.4,-14.6 m -1414.7,0 c -59.9,0 -113.5,24.7 -160.6,73.9 v 27.7 h 291.2 c -5.8,-15.6 -12.6,-29.4 -20.4,-41.4 -13.1,-19.9 -29,-34.8 -47.8,-45 -18.8,-10.1 -39.6,-15.2 -62.4,-15.2 m -868.2,10 c -41.8,0 -80.1,7.6 -115,22.9 -35.1,15.3 -65.2,37.5 -90.6,66.7 -0.6,0.7 -1.1,1.3 -1.7,2 h 415.3 c -0.5,-0.7 -1.1,-1.3 -1.7,-2 -25.4,-29.2 -55.7,-51.4 -90.9,-66.7 -35.1,-15.3 -73.6,-22.9 -115.4,-22.9 m 10512.8,19.2 h -153.8 v 72.4 h 390.4 c -22.3,-21.4 -50.2,-38.2 -84,-50.4 -40.5,-14.7 -91.4,-22 -152.6,-22 m 2452.3,4473.7 h -64.4 -5015.6 v 4943 h -66.8 -66.9 v -4943 h -9429.3 -69.4 v 4274.3 c 0,369.4 299.4,668.7 668.8,668.7 h 13374.7 c 369.4,0 668.8,-299.3 668.8,-668.7 v 13.1 c 0.1,-4.4 0.1,-8.8 0.1,-13.1 v -4274.3"
         id="path1176" />
    </clipPath>
    <radialGradient
       fx="0"
       fy="0"
       cx="0"
       cy="0"
       r="1"
       gradientUnits="userSpaceOnUse"
       gradientTransform="matrix(-9517.92,0,0,9517.92,20982.8,25180.4)"
       spreadMethod="pad"
       id="radialGradient1184">
      <stop
         style="stop-opacity:1;stop-color:#343537"
         offset="0"
         id="stop1180" />
      <stop
         style="stop-opacity:1;stop-color:#101010"
         offset="1"
         id="stop1182" />
    </radialGradient>
    <clipPath
       clipPathUnits="userSpaceOnUse"
       id="clipPath1178-9">
      <path
         d="M 27670.3,18660.2 H 14295.4 c -369.4,0 -668.8,299.3 -668.8,668.7 v 3027.4 h 1357.5 c 4.6,-21.9 10.7,-42.9 18.2,-63.2 19.9,-53.5 47.6,-99.3 83.1,-137.4 35.6,-38.1 78,-67.6 127.2,-88.7 49.3,-21.1 103.2,-31.6 162,-31.6 58.7,0 112.6,10.6 161.9,31.9 49.2,21.3 91.5,51.1 126.9,89.3 35.3,38.3 62.9,84.1 82.8,137.5 7.4,19.9 13.4,40.7 18.1,62.2 h 209.8 V 21817 h 107.4 v 133.7 146.7 c 22.7,-21.1 47.8,-36.7 75.3,-46.8 27.5,-10.1 58,-15.2 91.6,-15.2 36.8,0 70.9,7.6 102.3,22.9 31.4,15.3 58.7,37 81.6,65.2 23,28.1 40.9,62.1 54,102 12.7,39.1 19.3,82.7 19.5,130.8 h 199.5 v -128 c 0,-31 1.4,-58.2 4.3,-81.6 2.9,-23.4 9.3,-42.8 19.2,-58.3 9.9,-15.5 24.3,-27.2 43.1,-35 18.9,-7.9 44.4,-11.8 76.7,-11.8 28.9,0 54.8,2.6 77.5,8 v 81.3 c -8.3,-1.2 -16.9,-2.3 -26.1,-3.1 -9.1,-0.8 -18.3,-1.3 -27.9,-1.3 -9,0 -17.3,1.1 -24.4,3.2 -7.3,2.1 -13.5,6.5 -18.7,13.3 -5.2,6.8 -9.1,16.5 -11.8,29.2 -0.3,1.5 -0.6,3 -0.9,4.6 9.9,-1 20.6,-1.5 32.3,-1.5 28.9,0 54.8,2.7 77.5,8 v 81.4 c -8.3,-1.3 -16.9,-2.3 -26.1,-3.1 -9.1,-0.9 -18.3,-1.3 -27.9,-1.3 -9,0 -17.3,1 -24.4,3.1 -7.3,2.1 -13.5,6.5 -18.7,13.3 -5.2,6.9 -9.1,16.6 -11.8,29.2 -2.6,12.5 -4,29.2 -4,50.4 h 266.9 v -306 h 107.4 v 133.7 172.3 h 183.9 c 0,-0.7 0,-1.4 0,-2 0,-50.9 6.9,-96.1 20.8,-135.6 13.8,-39.5 33.3,-72.9 58.3,-100.2 25,-27.3 55,-48 90,-62 34.9,-14.1 73.7,-21.1 116.3,-21.1 43,0 82.1,7.1 117.3,21.4 35.1,14.2 65.1,35 89.9,62.3 24.8,27.3 44.1,60.7 57.7,100.2 13.7,39.5 20.5,84.5 20.5,135 0,0.6 0,1.3 0,2 h 184.5 v -306 h 107.3 v 133.7 172.3 h 278.6 v -306 h 109.2 v 133.7 172.3 h 672.4 v -64.1 h 337 v -241.9 h 109.2 v 133.7 108.2 h 145.7 v 64.1 h 3239.2 V 18727 h 66.9 66.8 v 3629.3 h 2362.8 v -306 h 266.2 c 242.3,0 381.8,101.9 418.3,306 H 28339 v -3027.4 c 0,-369.4 -299.5,-668.7 -668.7,-668.7 M 17656.8,22121 c -25.7,0 -49.1,4.8 -70.4,14.5 -21.4,9.8 -39.6,24.5 -54.9,44.1 -5.1,6.6 -9.9,13.6 -14.2,21.3 7.5,-3.9 15.2,-7.5 23.2,-10.7 34.9,-14 73.7,-21.1 116.3,-21.1 43,0 82.1,7.1 117.3,21.4 7.4,3 14.5,6.3 21.4,9.9 -4.2,-7.5 -8.8,-14.4 -13.7,-20.8 -15.1,-19.6 -33.3,-34.3 -54.6,-44.1 -21.3,-9.7 -44.7,-14.5 -70.4,-14.5 m -1414.7,0 c -59.9,0 -113.5,24.6 -160.6,73.8 v 36.4 c 22.7,-21.1 47.8,-36.7 75.3,-46.9 27.5,-10.1 58,-15.2 91.6,-15.2 36.8,0 70.9,7.7 102.3,23 3.9,1.9 7.6,3.8 11.3,5.9 -3,-6 -6.3,-11.6 -9.7,-16.9 -13.1,-19.8 -29,-34.8 -47.8,-44.9 -18.8,-10.2 -39.6,-15.2 -62.4,-15.2 m -868.2,9.9 c -41.8,0 -80.1,7.6 -115,22.9 -35.1,15.4 -65.2,37.6 -90.6,66.8 -1.5,1.7 -3,3.4 -4.4,5.2 15.4,-9.4 31.6,-17.7 48.7,-25.1 49.3,-21 103.2,-31.6 162,-31.6 58.7,0 112.6,10.7 161.9,31.9 16.9,7.4 33.1,15.7 48.4,25.1 -1.5,-1.9 -3.1,-3.7 -4.7,-5.5 -25.4,-29.2 -55.7,-51.4 -90.9,-66.8 -35.1,-15.3 -73.6,-22.9 -115.4,-22.9 m 10512.8,19.3 h -153.8 v 33.8 h 155.1 c 100.7,0 183.6,17.6 248.8,52.9 -0.2,-0.3 -0.4,-0.6 -0.7,-0.8 -23.9,-27.9 -56.2,-49.3 -96.8,-63.9 -40.5,-14.7 -91.4,-22 -152.6,-22 m -8229.9,104.5 c -25.7,0 -49.1,4.9 -70.4,14.6 -21.4,9.7 -39.6,24.4 -54.9,44.1 -9.7,12.4 -18,26.6 -24.9,42.9 h 299.9 c -6.9,-16.3 -15.2,-30.5 -24.7,-42.9 -15.1,-19.7 -33.3,-34.4 -54.6,-44.1 -21.3,-9.7 -44.7,-14.6 -70.4,-14.6 m -1414.7,0 c -59.9,0 -113.5,24.7 -160.6,73.9 v 27.7 h 291.2 c -5.8,-15.6 -12.6,-29.4 -20.4,-41.4 -13.1,-19.9 -29,-34.8 -47.8,-45 -18.8,-10.1 -39.6,-15.2 -62.4,-15.2 m -868.2,10 c -41.8,0 -80.1,7.6 -115,22.9 -35.1,15.3 -65.2,37.5 -90.6,66.7 -0.6,0.7 -1.1,1.3 -1.7,2 h 415.3 c -0.5,-0.7 -1.1,-1.3 -1.7,-2 -25.4,-29.2 -55.7,-51.4 -90.9,-66.7 -35.1,-15.3 -73.6,-22.9 -115.4,-22.9 m 10512.8,19.2 h -153.8 v 72.4 h 390.4 c -22.3,-21.4 -50.2,-38.2 -84,-50.4 -40.5,-14.7 -91.4,-22 -152.6,-22 m 2452.3,4473.7 h -64.4 -5015.6 v 4943 h -66.8 -66.9 v -4943 h -9429.3 -69.4 v 4274.3 c 0,369.4 299.4,668.7 668.8,668.7 h 13374.7 c 369.4,0 668.8,-299.3 668.8,-668.7 v 13.1 c 0.1,-4.4 0.1,-8.8 0.1,-13.1 v -4274.3"
         id="path1176-1" />
    </clipPath>
    <radialGradient
       fx="-0.022193458"
       fy="-0.12576292"
       cx="-0.022193458"
       cy="-0.12576292"
       r="1"
       gradientUnits="userSpaceOnUse"
       gradientTransform="matrix(-1269.0561,0,0,-1269.0561,1758.601,-377.84333)"
       spreadMethod="pad"
       id="radialGradient1184-0">
      <stop
         style="stop-opacity:1;stop-color:#343537"
         offset="0"
         id="stop1180-6" />
      <stop
         style="stop-opacity:1;stop-color:#101010"
         offset="1"
         id="stop1182-7" />
    </radialGradient>
    <clipPath
       clipPathUnits="userSpaceOnUse"
       id="clipPath1324">
      <path
         d="m 23192.2,26757.6 h 66.801 v 4943 h -66.801 z"
         id="path1322" />
    </clipPath>
    <radialGradient
       fx="0"
       fy="0"
       cx="0"
       cy="0"
       r="1"
       gradientUnits="userSpaceOnUse"
       gradientTransform="matrix(-9517.92,0,0,9517.92,20982.8,25180.4)"
       spreadMethod="pad"
       id="radialGradient1330">
      <stop
         style="stop-opacity:1;stop-color:#414245"
         offset="0"
         id="stop1326" />
      <stop
         style="stop-opacity:1;stop-color:#121213"
         offset="1"
         id="stop1328" />
    </radialGradient>
    <clipPath
       clipPathUnits="userSpaceOnUse"
       id="clipPath1340">
      <path
         d="m 23125.3,26757.6 h 66.898 v 4943 h -66.898 z"
         id="path1338" />
    </clipPath>
    <radialGradient
       fx="0"
       fy="0"
       cx="0"
       cy="0"
       r="1"
       gradientUnits="userSpaceOnUse"
       gradientTransform="matrix(-9517.92,0,0,9517.92,20982.8,25180.4)"
       spreadMethod="pad"
       id="radialGradient1346">
      <stop
         style="stop-opacity:1;stop-color:#272729"
         offset="0"
         id="stop1342" />
      <stop
         style="stop-opacity:1;stop-color:#0c0d0d"
         offset="1"
         id="stop1344" />
    </radialGradient>
    <clipPath
       clipPathUnits="userSpaceOnUse"
       id="clipPath1652">
      <path
         d="m 23192.2,18727 h 66.801 v 3629.3 h -66.801 z"
         id="path1650" />
    </clipPath>
    <radialGradient
       fx="0"
       fy="0"
       cx="0"
       cy="0"
       r="1"
       gradientUnits="userSpaceOnUse"
       gradientTransform="matrix(-9517.92,0,0,9517.92,20982.8,25180.4)"
       spreadMethod="pad"
       id="radialGradient1658">
      <stop
         style="stop-opacity:1;stop-color:#414245"
         offset="0"
         id="stop1654" />
      <stop
         style="stop-opacity:1;stop-color:#121213"
         offset="1"
         id="stop1656" />
    </radialGradient>
    <clipPath
       clipPathUnits="userSpaceOnUse"
       id="clipPath1680">
      <path
         d="m 23125.3,18727 h 66.898 v 3629.3 h -66.898 z"
         id="path1678" />
    </clipPath>
    <radialGradient
       fx="0"
       fy="0"
       cx="0"
       cy="0"
       r="1"
       gradientUnits="userSpaceOnUse"
       gradientTransform="matrix(-9517.92,0,0,9517.92,20982.8,25180.4)"
       spreadMethod="pad"
       id="radialGradient1686">
      <stop
         style="stop-opacity:1;stop-color:#272729"
         offset="0"
         id="stop1682" />
      <stop
         style="stop-opacity:1;stop-color:#0c0d0d"
         offset="1"
         id="stop1684" />
    </radialGradient>
    <clipPath
       clipPathUnits="userSpaceOnUse"
       id="clipPath1708">
      <path
         d="m 14295.4,18660.2 h 13374.9 c 369.2,0 668.7,299.3 668.7,668.7 v 66.9 c 0,-369.4 -299.5,-668.8 -668.7,-668.8 H 14295.4 c -369.4,0 -668.8,299.4 -668.8,668.8 v -66.9 c 0,-369.4 299.4,-668.7 668.8,-668.7 z"
         id="path1706" />
    </clipPath>
    <radialGradient
       fx="0"
       fy="0"
       cx="0"
       cy="0"
       r="1"
       gradientUnits="userSpaceOnUse"
       gradientTransform="matrix(-7350.99,0,0,7350.99,21071.5,18657)"
       spreadMethod="pad"
       id="radialGradient1714">
      <stop
         style="stop-opacity:1;stop-color:#929494"
         offset="0"
         id="stop1710" />
      <stop
         style="stop-opacity:1;stop-color:#515455"
         offset="1"
         id="stop1712" />
    </radialGradient>
  </defs>
  <g id="layer2" style="display:none">
    <path
       d="M -181.33898,774.54813 H 880.2928 V -756.15461 H -181.33898 Z"
       style="display:none;fill:#28292a;fill-opacity:1;fill-rule:nonzero;stroke:none;stroke-width:0.0352778"
       id="path14" />
  </g>
  <g id="layer1" style="display:inline">
    <g
       id="g1174"
       clip-path="url(#clipPath1178-9)"
       transform="matrix(0.03527778,0,0,-0.03527778,-274.93009,788.33756)"
       style="display:inline">
      <path
         id="path1186"
         style="display:inline;fill:url(#radialGradient1184-0);fill-opacity:1;fill-rule:nonzero;stroke:none;stroke-width:0.133333"
         d="m 866.94727,-771.20312 c -49.25334,0 -89.17383,39.90681 -89.17383,89.16015 V -1.296875 402.35742 c 0,49.25334 39.92049,89.16016 89.17383,89.16016 H 2650.2676 c 49.2266,0 89.1601,-39.90682 89.1601,-89.16016 V -1.296875 -682.04297 c 0,-0.57333 10e-5,-1.15943 -0.014,-1.74609 v 1.74609 c 0,-49.25334 -39.9205,-89.16015 -89.1739,-89.16015 h -588.146 V -1.296875 482.60938 h -8.9063 -8.9199 V -1.296875 -771.20312 Z"
         transform="matrix(7.4999995,0,0,-7.4999995,7793.2934,22346.575)" />
    </g>
    <path
       d="M 701.20953,-206.40755 H 229.37632 c -13.02809,0 -23.59378,10.55864 -23.59378,23.59025 v 2.36008 c 0,-13.03161 10.56569,-23.59025 23.59378,-23.59025 h 471.83321 c 13.03161,0 23.59377,10.55864 23.59377,23.59025 v -2.36008 c 0,-13.03161 -10.56216,-23.59025 -23.59377,-23.59025"
       style="display:inline;fill:#2d2e30;fill-opacity:1;fill-rule:nonzero;stroke:none;stroke-width:0.0352778"
       id="path1188" />
    <g
       id="g1702"
       transform="matrix(0.03527778,0,0,-0.03527778,-274.93009,788.33756)"
       style="display:inline">
      <g
         id="g1704"
         clip-path="url(#clipPath1708)"
         style="display:inline">
        <path
           d="m 14295.4,18660.2 h 13374.9 c 369.2,0 668.7,299.3 668.7,668.7 v 66.9 c 0,-369.4 -299.5,-668.8 -668.7,-668.8 H 14295.4 c -369.4,0 -668.8,299.4 -668.8,668.8 v -66.9 c 0,-369.4 299.4,-668.7 668.8,-668.7"
           style="fill:url(#radialGradient1714);fill-opacity:1;fill-rule:nonzero;stroke:none"
           id="path1716" />
      </g>
    </g>
  </g>
</svg>
