<?xml version="1.0" encoding="UTF-8" standalone="no"?>
<!-- Created with Inkscape (http://www.inkscape.org/) -->
<svg version="1.1"
     id="svg41"
     xml:space="preserve"
     width="1066.6667"
     height="1066.6667"
     viewBox="0 0 1066.6667 1066.6667"
     xmlns="http://www.w3.org/2000/svg"
     xmlns:svg="http://www.w3.org/2000/svg">
    <defs id="defs45">
        <radialGradient
                fx="0"
                fy="0"
                cx="0"
                cy="0"
                r="1"
                gradientUnits="userSpaceOnUse"
                gradientTransform="matrix(561.3584,0,0,-561.3584,400,399.83691)"
                spreadMethod="pad"
                id="radialGradient67">
            <stop style="stop-opacity:1;stop-color:#474747"
                  offset="0"
                  id="stop61" />
            <stop style="stop-opacity:1;stop-color:#474747"
                  offset="0.38570788"
                  id="stop63" />
            <stop style="stop-opacity:1;stop-color:#080808"
                  offset="1"
                  id="stop65" />
        </radialGradient>
        <clipPath clipPathUnits="userSpaceOnUse" id="clipPath77">
            <path d="M 0,800 H 800 V 0 H 0 Z" id="path75" />
        </clipPath>
        <clipPath clipPathUnits="userSpaceOnUse" id="clipPath85">
            <path d="M 0,800 H 800 V -0.326172 H 0 Z" id="path83" />
        </clipPath>
        <pattern
                patternTransform="matrix(0,0.853334,-0.853334,0,-1106.08,14991.3)"
                patternUnits="userSpaceOnUse"
                x="0"
                y="0"
                width="48"
                height="48"
                id="pattern139">
            <g transform="translate(0,-3.6001)"
               id="g89">
                <path d="M 0,0 C 1.988,0 3.6,1.611 3.6,3.6 3.6,5.588 1.988,7.2 0,7.2 -1.989,7.2 -3.6,5.588 -3.6,3.6 -3.6,1.611 -1.989,0 0,0"
                      style="fill:#000000;fill-opacity:1;fill-rule:nonzero;stroke:none"
                      id="path87" />
            </g>
            <g transform="translate(24,-3.6001)"
               id="g93">
                <path d="M 0,0 C 1.988,0 3.6,1.611 3.6,3.6 3.6,5.588 1.988,7.2 0,7.2 -1.989,7.2 -3.6,5.588 -3.6,3.6 -3.6,1.611 -1.989,0 0,0"
                      style="fill:#000000;fill-opacity:1;fill-rule:nonzero;stroke:none"
                      id="path91" />
            </g>
            <g transform="translate(48,-3.6001)"
               id="g97">
                <path d="M 0,0 C 1.988,0 3.6,1.611 3.6,3.6 3.6,5.588 1.988,7.2 0,7.2 -1.989,7.2 -3.6,5.588 -3.6,3.6 -3.6,1.611 -1.989,0 0,0"
                      style="fill:#000000;fill-opacity:1;fill-rule:nonzero;stroke:none"
                      id="path95" />
            </g>
            <g transform="translate(0,20.3999)" id="g101">
                <path d="M 0,0 C 1.988,0 3.6,1.611 3.6,3.6 3.6,5.588 1.988,7.2 0,7.2 -1.989,7.2 -3.6,5.588 -3.6,3.6 -3.6,1.611 -1.989,0 0,0"
                      style="fill:#000000;fill-opacity:1;fill-rule:nonzero;stroke:none"
                      id="path99" />
            </g>
            <g transform="translate(24,20.3999)" id="g105">
                <path d="M 0,0 C 1.988,0 3.6,1.611 3.6,3.6 3.6,5.588 1.988,7.2 0,7.2 -1.989,7.2 -3.6,5.588 -3.6,3.6 -3.6,1.611 -1.989,0 0,0"
                      style="fill:#000000;fill-opacity:1;fill-rule:nonzero;stroke:none"
                      id="path103" />
            </g>
            <g transform="translate(48,20.3999)"
               id="g109">
                <path d="M 0,0 C 1.988,0 3.6,1.611 3.6,3.6 3.6,5.588 1.988,7.2 0,7.2 -1.989,7.2 -3.6,5.588 -3.6,3.6 -3.6,1.611 -1.989,0 0,0"
                      style="fill:#000000;fill-opacity:1;fill-rule:nonzero;stroke:none"
                      id="path107" />
            </g>
            <g transform="translate(0,44.3999)"
               id="g113">
                <path d="M 0,0 C 1.988,0 3.6,1.611 3.6,3.6 3.6,5.588 1.988,7.2 0,7.2 -1.989,7.2 -3.6,5.588 -3.6,3.6 -3.6,1.611 -1.989,0 0,0"
                      style="fill:#000000;fill-opacity:1;fill-rule:nonzero;stroke:none"
                      id="path111" />
            </g>
            <g transform="translate(24,44.3999)" id="g117">
                <path
                        d="M 0,0 C 1.988,0 3.6,1.611 3.6,3.6 3.6,5.588 1.988,7.2 0,7.2 -1.989,7.2 -3.6,5.588 -3.6,3.6 -3.6,1.611 -1.989,0 0,0"
                        style="fill:#000000;fill-opacity:1;fill-rule:nonzero;stroke:none"
                        id="path115" />
            </g>
            <g transform="translate(48,44.3999)" id="g121">
                <path d="M 0,0 C 1.988,0 3.6,1.611 3.6,3.6 3.6,5.588 1.988,7.2 0,7.2 -1.989,7.2 -3.6,5.588 -3.6,3.6 -3.6,1.611 -1.989,0 0,0"
                      style="fill:#000000;fill-opacity:1;fill-rule:nonzero;stroke:none"
                      id="path119" />
            </g>
            <g transform="translate(36,8.3999)" id="g125">
                <path d="M 0,0 C 1.988,0 3.6,1.611 3.6,3.6 3.6,5.588 1.988,7.2 0,7.2 -1.989,7.2 -3.6,5.588 -3.6,3.6 -3.6,1.611 -1.989,0 0,0"
                      style="fill:#000000;fill-opacity:1;fill-rule:nonzero;stroke:none"
                      id="path123" />
            </g>
            <g transform="translate(12,8.3999)" id="g129">
                <path d="M 0,0 C 1.988,0 3.6,1.611 3.6,3.6 3.6,5.588 1.988,7.2 0,7.2 -1.989,7.2 -3.6,5.588 -3.6,3.6 -3.6,1.611 -1.989,0 0,0"
                      style="fill:#000000;fill-opacity:1;fill-rule:nonzero;stroke:none"
                      id="path127" />
            </g>
            <g transform="translate(36,32.3999)" id="g133">
                <path d="M 0,0 C 1.988,0 3.6,1.611 3.6,3.6 3.6,5.588 1.988,7.2 0,7.2 -1.989,7.2 -3.6,5.588 -3.6,3.6 -3.6,1.611 -1.989,0 0,0"
                      style="fill:#000000;fill-opacity:1;fill-rule:nonzero;stroke:none"
                      id="path131" />
            </g>
            <g transform="translate(12,32.3999)" id="g137">
                <path d="M 0,0 C 1.988,0 3.6,1.611 3.6,3.6 3.6,5.588 1.988,7.2 0,7.2 -1.989,7.2 -3.6,5.588 -3.6,3.6 -3.6,1.611 -1.989,0 0,0"
                      style="fill:#000000;fill-opacity:1;fill-rule:nonzero;stroke:none"
                      id="path135" />
            </g>
        </pattern>
    </defs>
    <g id="g47" transform="matrix(1.3333333,0,0,-1.3333333,0,1066.6667)">
        <g id="g49">
            <g id="g51">
                <g id="g57">
                    <g id="g59">
                        <path d="M 0,0 H 800 V 800 H 0 Z"
                              style="fill:url(#radialGradient67);stroke:none"
                              id="path69" />
                    </g>
                </g>
            </g>
        </g>
        <g id="g71">
            <g id="g73" clip-path="url(#clipPath77)">
                <g id="g79">
                    <g id="g81" />
                    <g id="g145">
                        <g clip-path="url(#clipPath85)" opacity="0.5" id="g143">
                            <path d="M 800,-0.326 H 0 V 800 h 800 z"
                                  style="fill:url(#pattern139);fill-opacity:1;fill-rule:nonzero;stroke:none"
                                  id="path141" />
                        </g>
                    </g>
                </g>
            </g>
        </g>
    </g>
</svg>
